<svg version="1.2" xmlns="http://www.w3.org/2000/svg" viewBox="0 0 646 646" width="646" height="646">
	<style>
		.s0 { fill: #000000 } 
	</style>
	<path id="Path 0" class="s0" d="m284.5 1.65c-6.05 0.8-17.75 2.82-26 4.49-8.25 1.68-21.08 4.87-28.5 7.09-7.43 2.22-19.13 6.26-26 8.99-6.88 2.73-17.45 7.36-23.5 10.28-6.05 2.92-16.29 8.5-22.75 12.4-6.46 3.91-17.04 10.87-23.5 15.47-6.46 4.61-15.8 11.9-20.75 16.2-4.95 4.3-13.22 12.12-18.39 17.38-5.16 5.25-13.21 13.82-17.89 19.05-4.67 5.22-12.18 14.67-16.69 21-4.5 6.32-10.76 15.77-13.91 21-3.15 5.22-8.58 15.12-12.07 22-3.48 6.87-8.14 16.77-10.35 22-2.22 5.22-5.82 14.9-8.01 21.5-2.18 6.6-5.35 17.62-7.03 24.5-1.68 6.87-3.75 16.55-4.6 21.5-0.85 4.95-2.22 14.4-3.04 21-0.97 7.72-1.51 20.74-1.51 36.5 0 21 0.36 27 2.54 42 1.4 9.62 3.66 22.45 5.02 28.5 1.37 6.05 4.1 16.4 6.07 23 1.96 6.6 5.15 16.05 7.07 21 1.92 4.95 6.85 15.97 10.95 24.5 4.11 8.52 10.25 20.11 13.65 25.75l6.19 10.25c5.99-11.24 8.98-16.3 10.52-18.5 1.54-2.2 4.3-5.59 6.14-7.53 1.84-1.95 4.86-4.65 6.72-6l3.37-2.47c-12.49-25.58-18.17-38.74-20.68-45.75-2.51-7.01-6.1-18.71-7.98-26-1.87-7.29-4.43-19.33-5.69-26.75-1.99-11.75-2.29-17.12-2.34-41.5-0.04-18.17 0.41-31.33 1.27-37.5 0.73-5.23 2.68-15.8 4.33-23.5 1.66-7.7 5.18-20.53 7.83-28.5 2.65-7.98 7.47-20.35 10.71-27.5 3.24-7.15 8.43-17.5 11.53-23 3.1-5.5 8.93-14.79 12.95-20.65 4.03-5.85 10.99-15.08 15.48-20.5 4.48-5.42 13.71-15.26 20.5-21.88 6.79-6.62 15.71-14.77 19.84-18.11 4.12-3.33 12.45-9.44 18.5-13.57 6.05-4.13 15.95-10.27 22-13.64 6.05-3.37 15.72-8.2 21.5-10.74 5.77-2.54 15.45-6.39 21.5-8.56 6.05-2.16 15.95-5.25 22-6.86 6.05-1.61 17.75-4.07 26-5.47 8.25-1.39 21.75-2.9 30-3.35 8.25-0.46 21.75-0.44 30 0.04 8.25 0.47 19.72 1.53 25.5 2.36 5.77 0.82 15.67 2.64 22 4.04 6.32 1.41 18.25 4.83 26.5 7.62 8.25 2.78 20.17 7.39 26.5 10.24 6.32 2.85 12.85 5.86 14.5 6.7 2.98 1.51 3.14 1.44 23.5-9.88 11.27-6.28 20.61-11.61 20.75-11.85 0.14-0.24-3.46-2.64-8-5.33-4.54-2.69-13.88-7.7-20.75-11.13-6.88-3.43-17.23-8.17-23-10.53-5.78-2.35-15.45-5.91-21.5-7.9-6.05-1.98-16.4-4.92-23-6.52-6.6-1.59-15.83-3.62-20.5-4.5-4.68-0.88-14.8-2.26-22.5-3.07-8.73-0.92-23.03-1.43-38-1.36-14.49 0.07-28.36 0.68-35 1.55zm302.72 154.6c-2.83 5.64-7.75 15.07-10.93 20.97l-5.79 10.72c5.63 10.51 9.3 18.28 11.78 24.06 2.48 5.77 6.12 15.22 8.07 21 1.95 5.77 4.9 15.9 6.55 22.5 1.65 6.6 3.69 16.05 4.53 21 0.84 4.95 2.04 14.62 2.67 21.5 0.7 7.57 0.93 20.78 0.58 33.5-0.31 11.55-1.26 25.5-2.11 31-0.85 5.5-2.26 13.37-3.14 17.5-0.88 4.12-3.11 12.9-4.94 19.5-1.84 6.6-5.35 17.17-7.81 23.5-2.45 6.32-6.46 15.77-8.9 21-2.44 5.22-7.03 14-10.2 19.5-3.17 5.5-9.08 14.72-13.13 20.5-4.05 5.77-11.14 15-15.77 20.5-4.62 5.5-13.3 14.75-19.29 20.56-5.99 5.8-15.62 14.32-21.39 18.92-5.78 4.6-15.45 11.62-21.5 15.6-6.05 3.98-15.73 9.73-21.5 12.77-5.78 3.04-14.33 7.17-19 9.18-4.68 2-12.78 5.19-18 7.08-5.23 1.89-16.03 5.18-24 7.32-7.98 2.14-19 4.62-24.5 5.5-5.5 0.88-14.28 2.03-19.5 2.57-5.23 0.53-17.38 0.97-27 0.97-9.63 0-21.78-0.44-27-0.97-5.23-0.54-14-1.68-19.5-2.56-5.5-0.87-16.53-3.34-24.5-5.49-7.98-2.15-18.78-5.45-24-7.34-5.23-1.89-13.1-4.99-17.5-6.88-4.4-1.9-11.26-5.09-15.25-7.09l-7.25-3.64c-14.34 7.94-21.65 12.04-25.5 14.24-3.85 2.2-9.03 5.11-11.5 6.47l-4.5 2.47c5.42 3.52 12.85 7.82 20 11.82 7.15 4 18.85 9.84 26 12.98 7.15 3.14 19.97 8 28.5 10.82 8.52 2.81 20.22 6.23 26 7.59 5.77 1.36 14.55 3.17 19.5 4.01 4.95 0.84 13.72 2.22 19.5 3.07 7.39 1.09 18.34 1.54 37 1.54 18.66 0 29.61-0.45 37-1.54 5.77-0.85 14.55-2.23 19.5-3.07 4.95-0.84 13.5-2.6 19-3.9 5.5-1.3 16.52-4.47 24.5-7.04 7.97-2.56 18.77-6.47 24-8.69 5.22-2.21 14-6.27 19.5-9.02 5.5-2.75 13.6-7.06 18-9.57 4.4-2.5 12.05-7.26 17-10.56 4.95-3.29 12.15-8.32 16-11.16 3.85-2.85 11.5-9.18 17-14.07 5.5-4.89 15.01-14.06 21.13-20.39 6.13-6.32 13.68-14.43 16.78-18 3.1-3.58 9.12-11.44 13.37-17.48 4.24-6.05 10.84-16.17 14.65-22.5 3.81-6.34 10.18-18.27 14.16-26.52 3.97-8.25 8.91-19.5 10.96-25 2.06-5.5 5.03-14.28 6.62-19.5 1.59-5.23 4.2-15.13 5.81-22 1.61-6.88 3.91-18.8 5.12-26.5 1.73-11.1 2.28-19.81 2.64-42 0.42-26.08 0.27-29.23-2.12-46-1.41-9.9-3.9-23.85-5.53-31-1.63-7.15-4.3-17.28-5.92-22.5-1.62-5.23-4.6-14-6.62-19.5-2.02-5.5-7.67-18.1-12.55-28-4.89-9.9-11.16-21.71-13.94-26.25-2.78-4.54-5.43-8.25-5.88-8.25-0.45 0-3.13 4.61-5.96 10.25z"/>
	<path id="Dot vector" class="s0" d="m311 280.78c-3.03 0.99-7.53 2.96-10 4.38-2.48 1.42-6.9 5.23-9.84 8.46-2.94 3.24-6.42 8.24-7.75 11.13-1.33 2.89-2.95 8.29-3.6 12-0.92 5.23-0.92 8.22 0 13.25 0.66 3.57 2.48 9.2 4.04 12.5 1.56 3.3 4.87 8.25 7.33 11 2.65 2.94 7.34 6.52 11.41 8.69 4.14 2.22 9.71 4.2 13.91 4.96 5.49 0.98 8.51 1 14 0.08 3.85-0.65 9.47-2.42 12.5-3.94 3.02-1.51 7.97-5.06 11-7.87 3.02-2.82 6.91-7.78 8.63-11.02 1.72-3.25 3.7-8.38 4.39-11.4 0.79-3.44 1.04-8.5 0.68-13.5-0.47-6.39-1.3-9.46-4.14-15.25-2.08-4.22-5.65-9.34-8.56-12.25-2.88-2.88-8.07-6.52-12.25-8.58-6.42-3.18-8.33-3.63-16.75-4.01-7.34-0.33-10.75-0.02-15 1.37z"/>
	<path id="Arrow vector" fill-rule="evenodd" class="s0" d="m571.5 45.09l6.75-0.05c4.45-0.03 8 0.56 10.41 1.71 2.01 0.96 4.93 3.21 6.5 5 2.44 2.8 2.84 4.09 2.84 9.25 0 5.44-0.67 7.33-7.12 20.25-3.92 7.84-19.51 37.87-34.66 66.75-15.14 28.87-30.87 58.8-34.96 66.5-4.09 7.7-13.13 24.74-20.1 37.87-6.96 13.13-14.05 25.5-15.74 27.5-1.7 2-5.3 5.07-8 6.84-2.71 1.76-7.62 4.14-10.92 5.28-3.3 1.14-11.18 3.04-17.5 4.23-8.25 1.54-15.6 2.16-26 2.2-12.68 0.04-15.19-0.23-20-2.15-3.03-1.21-7.48-3.9-9.9-5.98-2.42-2.09-7.14-7.84-10.49-12.79-3.36-4.95-9.93-12.88-14.6-17.63-4.92-4.98-10.62-9.69-13.51-11.14-2.75-1.38-7.03-3.04-9.5-3.68-3.78-0.98-6.51-0.82-17 0.98-6.88 1.19-27.58 5.95-46 10.58-18.43 4.63-35.08 8.42-37 8.41-1.93 0-5.52-1.02-7.99-2.26-2.47-1.24-5.52-3.84-6.78-5.76-1.49-2.29-2.28-4.97-2.26-7.75 0.02-2.34 0.48-5.38 1.03-6.75 0.55-1.38 2.69-4.34 4.75-6.6 2.22-2.42 9.27-7.28 17.25-11.88 7.42-4.28 25.87-14.74 41-23.24 15.12-8.51 43.7-24.51 63.5-35.56 19.8-11.05 76.5-42.6 126-70.11zm-99 95.38c-13.2 7.07-30.98 16.66-39.5 21.32-8.53 4.65-18.43 10.16-22 12.23-3.58 2.07-8.57 5.95-11.11 8.62-2.66 2.81-5.08 6.55-5.74 8.86-0.63 2.2-1.14 4.79-1.14 5.75-0.01 0.96 3.47 5.01 7.72 9 4.25 3.99 13.36 12.69 20.25 19.33 11.46 11.06 12.99 12.19 18.02 13.39 3.37 0.8 7.73 1.06 11.25 0.67 3.16-0.35 7.89-1.53 10.5-2.62 2.61-1.09 5.72-3 6.91-4.25 1.19-1.25 6.32-10.14 11.4-19.77 5.08-9.62 16.15-31.45 24.61-48.5 10.83-21.86 15.37-32.03 15.39-34.5 0.02-2.1-0.66-4.1-1.7-5-0.95-0.82-3.56-1.63-5.79-1.78-2.58-0.18-6.09 0.58-9.57 2.06-3.03 1.29-16.3 8.12-29.5 15.19zm-256 204.02c6.27 0.22 13.37 1.11 16.5 2.06 3.02 0.92 7.19 2.52 9.25 3.56 2.19 1.1 6.11 4.91 9.41 9.14 3.11 3.99 9.98 11.53 15.25 16.76 5.27 5.24 12.74 11.76 16.59 14.49 3.85 2.74 9.47 5.98 12.5 7.21 3.53 1.44 7.65 2.25 11.5 2.27 3.3 0.02 8.7-0.44 12-1.03 3.3-0.58 16.57-3.7 29.5-6.94 12.92-3.23 27.55-6.64 32.5-7.56 5.43-1.01 11.98-1.51 16.5-1.26 5.3 0.28 8.53 1.02 11 2.51 1.92 1.16 4.06 3.28 4.75 4.7 0.69 1.43 1.25 4.18 1.25 6.1 0 1.93-0.63 4.74-1.41 6.25-0.78 1.51-2.69 3.92-4.25 5.35-1.56 1.43-7.79 5.54-13.84 9.13-6.05 3.58-17.3 10.11-25 14.51-7.7 4.4-21.88 12.27-31.5 17.5-9.62 5.23-21.77 11.65-27 14.27-5.23 2.62-12.31 5.83-15.75 7.13-3.44 1.3-8.28 2.36-10.75 2.36-2.48 0-5.84-0.78-7.48-1.75-1.64-0.96-3.87-3.32-4.95-5.25-1.08-1.92-3.27-8.9-4.86-15.5-1.59-6.6-3.81-13.8-4.92-16-1.12-2.2-4.02-6.02-6.46-8.5-2.45-2.47-7.12-6.28-10.39-8.47-3.27-2.18-8.75-4.99-12.19-6.25-3.44-1.25-8.39-2.27-11-2.26-2.61 0.01-6.55 0.83-8.75 1.82-2.2 0.99-5.45 3.57-7.22 5.73-1.77 2.16-3.73 5.73-4.36 7.93-0.93 3.25-0.84 4.94 0.46 9 0.88 2.75 5.23 11.3 9.67 19 4.44 7.7 8.72 16.25 9.52 19 0.8 2.75 1.45 8.38 1.44 12.5 0 4.13-0.71 10.2-1.57 13.5-0.86 3.3-3 8.69-4.75 11.97-1.76 3.29-5.47 8.24-8.27 11-2.79 2.77-9.76 7.69-15.5 10.95-5.73 3.25-22.57 12.75-37.42 21.09-14.85 8.35-35.78 19.94-46.5 25.76-10.72 5.81-24.45 12.95-30.5 15.86-9.15 4.4-12.2 5.38-25.27 6.37l-4.07-4c-4.01-3.94-4.07-4.11-4.12-11.25-0.03-6.41 0.43-8.26 4-16 2.23-4.81 11.57-22.89 20.75-40.18 9.19-17.29 18.06-32.91 19.71-34.71 1.78-1.95 4.02-3.31 5.5-3.35 1.37-0.04 3.31 0.73 4.3 1.71 1.38 1.37 1.7 2.93 1.4 6.78-0.22 2.75-1.88 9.05-3.69 14-1.82 5-3.53 11.89-3.83 15.5-0.5 6.05-0.35 6.69 2.14 9.25 2.27 2.32 3.26 2.67 6.43 2.2 2.06-0.3 6.67-1.49 10.25-2.65 3.57-1.16 9.87-3.64 14-5.52 4.12-1.88 11.55-5.81 16.5-8.74 4.95-2.92 11.87-7.5 15.37-10.18 3.51-2.67 7.18-6.21 8.18-7.86 0.99-1.65 3-6.6 4.47-11 1.95-5.85 2.66-10.01 2.65-15.5-0.01-5.28-0.67-9.28-2.25-13.5-1.22-3.3-3.86-8.7-5.85-12-1.99-3.3-6.51-9.82-10.04-14.5-3.54-4.67-7.55-10.97-8.92-14-1.78-3.93-2.61-7.78-2.9-13.5-0.29-5.5 0.12-10.03 1.29-14.5 0.94-3.57 3.18-9.42 4.99-13 1.81-3.57 5.47-9.39 8.15-12.92 2.67-3.53 7.11-8.31 9.86-10.63 2.75-2.32 7.25-5.63 10-7.35 2.75-1.72 7.92-4.09 11.5-5.26 3.57-1.16 8.52-2.49 11-2.93 2.47-0.45 9.45-0.64 15.5-0.42z"/>
</svg>