<svg version="1.2" xmlns="http://www.w3.org/2000/svg" viewBox="0 0 1122 1122" width="200" height="200"><style>.a{fill:#faedd3}.b{fill:#eec36b}</style><path class="a" d="m735.4 907.6c26.9 0.7 54.3-1.7 81.8-7.7 175.1-38.4 285.1-206.6 245.7-375.8-36.8-157.9-190.9-260.8-353.7-242.6 2.6-26.2 1-53.3-5.4-80.4-32.4-139-175.3-226.2-319.2-194.7-143.5 31.4-233.8 169.1-202.1 307.7-92.8 34.3-147.9 130-125.5 226.3 22.6 97.1 116.3 160.8 216.1 151.7-55.4 60.1-81.2 144.3-61.5 228.8 32.4 139 175.3 226.2 319.3 194.7 108.5-23.8 186.6-108.3 204.5-208zm-315.9-296.6c0.6-0.8 1.1-1.5 1.7-2.3"/><path class="b" d="m530.9 1115.6c108.5-23.8 186.6-108.3 204.5-208 26.9 0.7 54.3-1.7 81.8-7.7 175.1-38.4 285.1-206.6 245.7-375.8-8.7-37.2-23.9-71.2-44.1-101.4 1.7 5.8 3.4 11.6 4.7 17.6 35.9 154.1-64.3 307.3-223.8 342.3-63.4 13.8-126.6 6.9-182-16.2 30.3 140.9-61.8 279.9-207.7 311.9-16.7 3.6-33.3 5.7-49.8 6.3-5.2 2.1-10.4 4.1-15.7 6 54.9 28.9 120.5 39.4 186.4 25z"/></svg>